<svg xmlns="http://www.w3.org/2000/svg" version="1.1" xmlns:xlink="http://www.w3.org/1999/xlink" xmlns:svgjs="http://svgjs.dev/svgjs" width="1440" height="250" preserveAspectRatio="none" viewBox="0 0 1440 250"><g mask="url(&quot;#SvgjsMask1548&quot;)" fill="none"><rect width="1440" height="250" x="0" y="0" fill="url(&quot;#SvgjsLinearGradient1549&quot;)"></rect><path d="M10 250L260 0L399.5 0L149.5 250z" fill="url(&quot;#SvgjsLinearGradient1550&quot;)"></path><path d="M278.6 250L528.6 0L686.1 0L436.1 250z" fill="url(&quot;#SvgjsLinearGradient1550&quot;)"></path><path d="M478.20000000000005 250L728.2 0L1010.2 0L760.2 250z" fill="url(&quot;#SvgjsLinearGradient1550&quot;)"></path><path d="M724.8000000000001 250L974.8000000000001 0L1306.3000000000002 0L1056.3000000000002 250z" fill="url(&quot;#SvgjsLinearGradient1550&quot;)"></path><path d="M1392 250L1142 0L1061 0L1311 250z" fill="url(&quot;#SvgjsLinearGradient1551&quot;)"></path><path d="M1194.4 250L944.4000000000001 0L684.9000000000001 0L934.9000000000001 250z" fill="url(&quot;#SvgjsLinearGradient1551&quot;)"></path><path d="M956.8 250L706.8 0L393.29999999999995 0L643.3 250z" fill="url(&quot;#SvgjsLinearGradient1551&quot;)"></path><path d="M723.1999999999999 250L473.19999999999993 0L137.19999999999993 0L387.19999999999993 250z" fill="url(&quot;#SvgjsLinearGradient1551&quot;)"></path><path d="M1266.889938177303 250L1440 76.88993817730295L1440 250z" fill="url(&quot;#SvgjsLinearGradient1550&quot;)"></path><path d="M0 250L173.11006182269705 250L 0 76.88993817730295z" fill="url(&quot;#SvgjsLinearGradient1551&quot;)"></path></g><defs><mask id="SvgjsMask1548"><rect width="1440" height="250" fill="#ffffff"></rect></mask><linearGradient x1="20.66%" y1="-119%" x2="79.34%" y2="219%" gradientUnits="userSpaceOnUse" id="SvgjsLinearGradient1549"><stop stop-color="#0e2a47" offset="0"></stop><stop stop-color="rgba(0, 10, 158, 1)" offset="1"></stop></linearGradient><linearGradient x1="0%" y1="100%" x2="100%" y2="0%" id="SvgjsLinearGradient1550"><stop stop-color="rgba(85, 79, 255, 1)" offset="0"></stop><stop stop-opacity="0" stop-color="rgba(85, 79, 255, 1)" offset="0.66"></stop></linearGradient><linearGradient x1="100%" y1="100%" x2="0%" y2="0%" id="SvgjsLinearGradient1551"><stop stop-color="rgba(85, 79, 255, 1)" offset="0"></stop><stop stop-opacity="0" stop-color="rgba(85, 79, 255, 1)" offset="0.66"></stop></linearGradient></defs></svg>